<svg width="100px" height="100px" version="1.1" viewBox="0 0 100 100" xmlns="http://www.w3.org/2000/svg">
    <g shape-rendering="auto">
        <rect y=="0" width="100" height="100" color="#000000" color-rendering="auto" fill="#008000" image-rendering="auto" solid-color="#000000" style="isolation:auto;mix-blend-mode:normal"/>
        <rect transform="rotate(90)" x="80" y="-55" width="20" height="10" color="#000000" color-rendering="auto" fill="#d4aa00" image-rendering="auto" solid-color="#000000" style="isolation:auto;mix-blend-mode:normal"/>
        <path d="m0 100c15.121-8.7238 32.543-13.337 50-13.381 17.485 0.0298 34.855 4.6435 50 13.381v-100h-100z" color="#000000" color-rendering="auto" fill="#504416" image-rendering="auto" solid-color="#000000" style="isolation:auto;mix-blend-mode:normal"/>
        <path d="m55 45h25s2e-5 -2e-5 2e-5 10-12.5 15-12.5 15-12.5-5-12.5-15z" color="#000000" color-rendering="auto" fill="#ac9d93" image-rendering="auto" solid-color="#000000" style="isolation:auto;mix-blend-mode:normal"/>
        <path d="m60 50h15s2e-5 -2e-5 2e-5 6c0 6-7.5 9-7.5 9s-7.5-3-7.5-9z" color="#000000" color-rendering="auto" fill="#6c5353" image-rendering="auto" solid-color="#000000" style="isolation:auto;mix-blend-mode:normal"/>
    </g>
</svg>
