<svg width="100px" height="100px" version="1.1" viewBox="0 0 100 100" xmlns="http://www.w3.org/2000/svg">
    <g shape-rendering="auto">
        <rect transform="rotate(-90)" x="-100" y="-.001" width="100" height="100" color="#000000" color-rendering="auto" fill="#008000" image-rendering="auto" solid-color="#000000" style="isolation:auto;mix-blend-mode:normal"/>
        <path d="m-1e-3 100c14.579-47.892 52.09-85.483 100-100h-100z" color="#000000" color-rendering="auto" fill="#504416" image-rendering="auto" solid-color="#000000" style="isolation:auto;mix-blend-mode:normal"/>
        <path d="m44.999 100h10a45 45 0 0 1 45-45v-10a55 55 0 0 0-55 55z" color="#000000" color-rendering="auto" fill="#d4aa00" image-rendering="auto" solid-color="#000000" style="isolation:auto;mix-blend-mode:normal"/>
        <path d="m9.999 10h25s2e-5 -2e-5 2e-5 10-12.5 15-12.5 15-12.5-5-12.5-15z" color="#000000" color-rendering="auto" fill="#ac9d93" image-rendering="auto" solid-color="#000000" style="isolation:auto;mix-blend-mode:normal"/>
        <path d="m14.999 15h15s2e-5 -2e-5 2e-5 6c0 6-7.5 9-7.5 9s-7.5-3-7.5-9z" color="#000000" color-rendering="auto" fill="#6c5353" image-rendering="auto" solid-color="#000000" style="isolation:auto;mix-blend-mode:normal"/>
    </g>
</svg>
