<svg width="100px" height="100px" version="1.1" viewBox="0 0 100 100" xmlns="http://www.w3.org/2000/svg">
    <g shape-rendering="auto">
        <rect transform="matrix(0,1,1,0,0,0)" x="2.4414e-5" width="100" height="100" color="#000000" color-rendering="auto" fill="#008000" image-rendering="auto" solid-color="#000000" style="isolation:auto;mix-blend-mode:normal"/>
        <path d="m45 0h10a45 45 0 0 0 45 45v10a55 55 0 0 1-55-55z" color="#000000" color-rendering="auto" fill="#d4aa00" image-rendering="auto" solid-color="#000000" style="isolation:auto;mix-blend-mode:normal"/>
        <path d="M 0,0 H 100 C 84.855,8.7373 67.484,13.351 49.999,13.381 32.542,13.337 15.121,8.724 0,0 Z" color="#000000" color-rendering="auto" fill="#504416" image-rendering="auto" solid-color="#000000" style="isolation:auto;mix-blend-mode:normal"/>
        <path d="m55 100h-10a45 45 0 0 0-45-45v-10a55 55 0 0 1 55 55z" color="#000000" color-rendering="auto" fill="#d4aa00" image-rendering="auto" solid-color="#000000" style="isolation:auto;mix-blend-mode:normal"/>
    </g>
</svg>
