<svg width="100px" height="100px" version="1.1" viewBox="0 0 100 100" xmlns="http://www.w3.org/2000/svg">
    <g shape-rendering="auto">
        <rect transform="scale(-1,1)" x="-100" y="-.040015" width="100" height="100" color="#000000" color-rendering="auto" fill="#008000" image-rendering="auto" solid-color="#000000" style="isolation:auto;mix-blend-mode:normal"/>
        <path d="m100-0.04c-47.892 14.579-85.483 52.09-100 100v-100z" color="#000000" color-rendering="auto" fill="#504416" image-rendering="auto" solid-color="#000000" style="isolation:auto;mix-blend-mode:normal"/>
        <path d="m100 100h-100c15.145-8.7373 32.516-13.351 50.001-13.381 17.457 0.044 34.878 4.6571 49.999 13.381z" color="#000000" color-rendering="auto" fill="#504416" image-rendering="auto" solid-color="#000000" style="isolation:auto;mix-blend-mode:normal"/>
        <path d="m10 10h25s2e-5 -1e-4 2e-5 9.9999-12.5 15-12.5 15-12.5-5-12.5-15z" color="#000000" color-rendering="auto" fill="#ac9d93" image-rendering="auto" solid-color="#000000" style="isolation:auto;mix-blend-mode:normal"/>
        <path d="m15 15h15s2e-5 -1e-4 2e-5 5.9999c0 6.0001-7.5 9.0001-7.5 9.0001s-7.5-3-7.5-9z" color="#000000" color-rendering="auto" fill="#6c5353" image-rendering="auto" solid-color="#000000" style="isolation:auto;mix-blend-mode:normal"/>
    </g>
</svg>
