<svg width="100px" height="100px" version="1.1" viewBox="0 0 100 100" xmlns="http://www.w3.org/2000/svg">
    <rect y="2.4414e-5" width="100" height="100" color="#000000" color-rendering="auto" fill="#008000" image-rendering="auto" shape-rendering="auto" solid-color="#000000" style="isolation:auto;mix-blend-mode:normal"/>
    <g fill="#504416" shape-rendering="auto">
        <path d="m100 0c-12.891 26.562-32.543 32.087-50 32.131-17.485-0.03-37.109-5.5684-50-32.131v100c12.891-26.562 32.543-32.087 50-32.131 17.485 0.03 37.109 5.5683 50 32.131z" color="#000000" color-rendering="auto" image-rendering="auto" solid-color="#000000" style="isolation:auto;mix-blend-mode:normal"/>
        <path d="M 100,0 H 0 C 15.145,8.7373 32.516,13.351 50.001,13.381 67.458,13.337 84.879,8.724 100,0 Z" color="#000000" color-rendering="auto" image-rendering="auto" solid-color="#000000" style="isolation:auto;mix-blend-mode:normal"/>
        <path d="m0 100h100c-15.145-8.7373-32.516-13.351-50.001-13.381-17.457 0.044-34.878 4.6571-49.999 13.381z" color="#000000" color-rendering="auto" image-rendering="auto" solid-color="#000000" style="isolation:auto;mix-blend-mode:normal"/>
        <path d="m68.594 90.6c-9.8779-12.891-11.932-23.168-11.949-40.625 0.01116-17.485 2.0707-27.734 11.949-40.625h-37.188c9.8779 12.891 11.932 23.168 11.949 40.625-0.01116 17.485-2.0707 27.734-11.949 40.625z" color="#000000" color-rendering="auto" image-rendering="auto" solid-color="#000000" style="isolation:auto;mix-blend-mode:normal"/>
    </g>
</svg>
